<?xml version="1.0" encoding="utf-8"?>
<!-- Generator: Adobe Illustrator 28.0.0, SVG Export Plug-In . SVG Version: 6.00 Build 0)  -->
<svg version="1.2" baseProfile="tiny" id="Layer_1" xmlns="http://www.w3.org/2000/svg" xmlns:xlink="http://www.w3.org/1999/xlink"
	 x="0px" y="0px" viewBox="0 0 78 78" overflow="visible" xml:space="preserve">
<g>
	<path fill="#8420D3" d="M53,78H25C11.2,78,0,66.8,0,53V25C0,11.2,11.2,0,25,0h28c13.8,0,25,11.2,25,25v28C78,66.8,66.8,78,53,78z"
		/>
	<g>
		<path fill="#8C52FF" d="M18.3,29.8c0,0.1-0.1,0.2-0.1,0.3c0,0.1,0,0.1,0,0.2v6c0,0.2,0.1,0.3,0.3,0.3c4.1-0.4,7.4-4,7.4-8.2v-1.1
			c0,0,0,0,0,0c0-0.7-0.6-1.2-1.3-1.2h-0.9C21.2,25.9,19.1,27.5,18.3,29.8z"/>
		<path fill="#FFFFFF" d="M59,30.7c-0.7-1.6-1.7-2.9-3.2-3.9c-1.5-1-3.4-1.5-5.7-1.5c-1.8,0-3.3,0.4-4.6,1.2c-1.3,0.8-2.5,2-3.6,3.6
			c0,0-0.1,0.1-0.1,0.1h-0.1c-0.1,0-0.1,0-0.1-0.1c-0.7-1.5-1.7-2.6-2.9-3.5c-1.2-0.8-2.7-1.3-4.6-1.3c-1.6,0-3,0.4-4.3,1.2
			c-1,0.6-1.9,1.5-2.7,2.5c-0.4,4.8-4.3,8.5-9.1,8.7v11.9c0,1.7,1.4,3.1,3.1,3.1h5.5c0.1,0,0.1-0.1,0.1-0.1V36.8
			c0-1.3,0.3-2.4,1-3.1c0.7-0.7,1.7-1.1,3-1.1c1.4,0,2.5,0.3,3,1c0.6,0.6,0.9,1.7,0.9,3.2v15.8c0,0.1,0.1,0.1,0.1,0.1h8.4
			c0.1,0,0.1-0.1,0.1-0.1V36.7c0-1.3,0.3-2.3,1-3c0.7-0.7,1.7-1.1,3-1.1c1.1,0,1.9,0.2,2.4,0.6c0.6,0.4,0.9,0.9,1.1,1.5
			c0.2,0.6,0.3,1.4,0.3,2.3v15.6c0,0.1,0.1,0.1,0.1,0.1h5.3c1.9,0,3.4-1.5,3.4-3.4V36C60,34.1,59.7,32.3,59,30.7z"/>
	</g>
</g>
</svg>
